<svg xmlns="http://www.w3.org/2000/svg" viewBox="0 0 11.7 11.7"><defs><style>.cls-1{fill:#fff;}</style></defs><g id="Layer_2" data-name="Layer 2"><g id="desktop_3_hopkins" data-name="desktop 3 hopkins"><path class="cls-1" d="M5.85,0C4.26,0,4.06,0,3.44,0A4,4,0,0,0,2,.31,2.74,2.74,0,0,0,1,1,2.74,2.74,0,0,0,.31,2,4,4,0,0,0,0,3.44c0,.62,0,.82,0,2.41S0,7.64,0,8.26A4,4,0,0,0,.31,9.68a2.74,2.74,0,0,0,.67,1,2.94,2.94,0,0,0,1,.67,4,4,0,0,0,1.42.27c.62,0,.82,0,2.41,0s1.79,0,2.41,0a4,4,0,0,0,1.42-.27,2.74,2.74,0,0,0,1-.67,2.94,2.94,0,0,0,.67-1,4,4,0,0,0,.27-1.42c0-.62,0-.82,0-2.41s0-1.79,0-2.41A4,4,0,0,0,11.39,2a2.74,2.74,0,0,0-.67-1,2.74,2.74,0,0,0-1-.67A4,4,0,0,0,8.26,0C7.64,0,7.44,0,5.85,0Zm0,1.05c1.56,0,1.75,0,2.36,0a3.15,3.15,0,0,1,1.09.2,1.78,1.78,0,0,1,.67.44,1.78,1.78,0,0,1,.44.67,3.15,3.15,0,0,1,.2,1.09c0,.61,0,.8,0,2.36s0,1.75,0,2.36a3.15,3.15,0,0,1-.2,1.09A1.74,1.74,0,0,1,10,10a1.78,1.78,0,0,1-.67.44,3.15,3.15,0,0,1-1.09.2c-.61,0-.8,0-2.36,0s-1.75,0-2.36,0a3.15,3.15,0,0,1-1.09-.2A1.74,1.74,0,0,1,1.73,10a1.74,1.74,0,0,1-.44-.67,3.15,3.15,0,0,1-.2-1.09c0-.61,0-.8,0-2.36s0-1.75,0-2.36a3.15,3.15,0,0,1,.2-1.09,1.78,1.78,0,0,1,.44-.67,1.78,1.78,0,0,1,.67-.44,3.15,3.15,0,0,1,1.09-.2C4.1,1.06,4.29,1.05,5.85,1.05Z"/><path class="cls-1" d="M5.85,7.8a2,2,0,0,1,0-3.9h0a2,2,0,1,1,0,3.9Zm0-5a3,3,0,0,0,0,6h0a3,3,0,0,0,0-6Zm3.88,0A.71.71,0,1,1,9,2.08a.71.71,0,0,1,.71.71"/></g></g></svg>