<svg xmlns="http://www.w3.org/2000/svg" viewBox="0 0 17.5 17.5"><defs><style>.cls-1{fill:#6ba1af;}</style></defs><g id="Layer_2" data-name="Layer 2"><g id="iphone_footer" data-name="iphone footer"><path class="cls-1" d="M8.75,0C6.37,0,6.07,0,5.14.05A6.46,6.46,0,0,0,3,.46a4.21,4.21,0,0,0-1.55,1A4.21,4.21,0,0,0,.46,3,6.21,6.21,0,0,0,.05,5.14c0,.93,0,1.23,0,3.61s0,2.67.05,3.6a6.52,6.52,0,0,0,.41,2.13,4.29,4.29,0,0,0,1,1.55A4.37,4.37,0,0,0,3,17a6.49,6.49,0,0,0,2.12.4c.93,0,1.23.06,3.61.06s2.67,0,3.6-.06a6.55,6.55,0,0,0,2.13-.4A4.42,4.42,0,0,0,16,16a4.55,4.55,0,0,0,1-1.55,6.55,6.55,0,0,0,.4-2.13c0-.93.06-1.23.06-3.6s0-2.68-.06-3.61A6.49,6.49,0,0,0,17,3a4.34,4.34,0,0,0-1-1.55,4.29,4.29,0,0,0-1.55-1A6.27,6.27,0,0,0,12.35.05C11.42,0,11.12,0,8.75,0Zm0,1.58c2.33,0,2.61,0,3.53,0a4.88,4.88,0,0,1,1.63.3,2.71,2.71,0,0,1,1,.65,2.73,2.73,0,0,1,.66,1,4.87,4.87,0,0,1,.3,1.62c0,.93.05,1.2.05,3.54s0,2.61-.05,3.53a4.88,4.88,0,0,1-.3,1.63,2.69,2.69,0,0,1-.66,1,2.61,2.61,0,0,1-1,.66,4.88,4.88,0,0,1-1.63.3c-.92,0-1.2.05-3.53.05s-2.61,0-3.54-.05a4.87,4.87,0,0,1-1.62-.3,2.73,2.73,0,0,1-1-.66,2.66,2.66,0,0,1-.65-1,4.88,4.88,0,0,1-.3-1.63c0-.92,0-1.2,0-3.53s0-2.61,0-3.54a4.87,4.87,0,0,1,.3-1.62A2.83,2.83,0,0,1,3.59,1.93a4.87,4.87,0,0,1,1.62-.3C6.14,1.59,6.41,1.58,8.75,1.58Z"/><path class="cls-1" d="M8.75,11.67a2.92,2.92,0,0,1,0-5.84h0a2.92,2.92,0,0,1,0,5.84Zm0-7.42a4.5,4.5,0,0,0,0,9h0a4.5,4.5,0,0,0,0-9Zm5.8-.08a1.06,1.06,0,1,1-1.06-1.06,1.05,1.05,0,0,1,1.06,1.06"/></g></g></svg>