<svg xmlns="http://www.w3.org/2000/svg" viewBox="0 0 595.47 144.68"><defs><style>.cls-1{fill:#a39499;}</style></defs><g id="Layer_2" data-name="Layer 2"><g id="desktop_1_main" data-name="desktop 1 main"><path class="cls-1" d="M113.08,97.49a13.21,13.21,0,0,1,1.34-4.57,12.37,12.37,0,0,1,2.64-3.53,11.7,11.7,0,0,1,3.59-2.27,11,11,0,0,1,4.23-.82,9.81,9.81,0,0,1,4.57,1,7.74,7.74,0,0,1,2.92,2.55,9.25,9.25,0,0,1,1.43,3.59,13,13,0,0,1,.11,4.09,13.47,13.47,0,0,1-1.26,4.35,12.73,12.73,0,0,1-2.54,3.56,11.61,11.61,0,0,1-3.58,2.4,11.07,11.07,0,0,1-4.4.87,10.28,10.28,0,0,1-4.2-.81,7.74,7.74,0,0,1-3-2.3,9,9,0,0,1-1.66-3.53A12.8,12.8,0,0,1,113.08,97.49Zm3.93,0a11.41,11.41,0,0,0,0,3.26,7.57,7.57,0,0,0,.94,2.71,5.32,5.32,0,0,0,1.82,1.86,5,5,0,0,0,2.64.68,5.92,5.92,0,0,0,2.62-.61,7.54,7.54,0,0,0,2.27-1.72,9.64,9.64,0,0,0,1.72-2.68,12.49,12.49,0,0,0,.93-3.5A11.57,11.57,0,0,0,130,94a7.3,7.3,0,0,0-1-2.68,5.11,5.11,0,0,0-1.85-1.73,5.18,5.18,0,0,0-2.57-.63,6,6,0,0,0-2.77.66,7.16,7.16,0,0,0-2.26,1.78,9.74,9.74,0,0,0-1.63,2.68A12.56,12.56,0,0,0,117,97.47Z"/><path class="cls-1" d="M149.44,108.26l-4-7.93q-2-3.94-4-7.93l-.32-1-.09,1-1.92,15.89h-3.14l2.63-21.51h3.61l7.25,14.41.45.88.26,1.13.06-1.13,1.89-15.29h3.26l-2.63,21.51Z"/><path class="cls-1" d="M171.1,89.44h-5.86l.33-2.69H181l-.32,2.69H174.8l-2.31,18.82h-3.7Z"/><path class="cls-1" d="M180.32,108.26,183,86.75h3.7L184,108.26Zm9.17-12.64h5.95l1.09-8.87h3.64l-2.63,21.51H193.9l1.21-9.94h-8.76a6.74,6.74,0,0,1,.51-.95,4.37,4.37,0,0,1,.68-.86,3.27,3.27,0,0,1,.87-.64A2.39,2.39,0,0,1,189.49,95.62Z"/><path class="cls-1" d="M202,108.26l2.63-21.51h12.67l-.33,2.69h-9l-2,16.12h9.44l-.32,2.7Zm9.17-12.61h4l-.32,2.64H208a7.75,7.75,0,0,1,.51-.92,4.37,4.37,0,0,1,.68-.86,3,3,0,0,1,.87-.62A2.44,2.44,0,0,1,211.13,95.65Z"/><polygon class="cls-1" points="87.61 1.24 79.88 64.39 116.56 64.39 117.11 59.38 87.45 59.38 94.02 6.25 122.33 6.25 122.96 1.24 87.61 1.24"/><path class="cls-1" d="M103.06,28.85a6.68,6.68,0,0,0-4.72,1.64,13.3,13.3,0,0,0-2.56,3.19h20.16l.63-4.83Z"/><path class="cls-1" d="M172.85,8.77a24.64,24.64,0,0,0-10-6.37A43,43,0,0,0,148.38.18c-1.29,0-2.72,0-4.27.13s-3.15.22-4.76.4-3.27.39-4.89.66c-1.46.23-2.83.5-4.09.8L122.8,64.39h7L137,5.88l.54-.07c1.41-.18,3-.33,4.74-.45s3.51-.18,5.29-.18c8.93,0,15.44,2.43,19.35,7.23s5.32,11.63,4.24,20.36a39.49,39.49,0,0,1-2.9,10.71,34.11,34.11,0,0,1-5.43,8.79,26.64,26.64,0,0,1-7.34,6A17.85,17.85,0,0,1,147,60.45h-1.82a19.48,19.48,0,0,1-2.26-.18,7.11,7.11,0,0,0-4.73,1.13,12.37,12.37,0,0,0-3,2.82,40.44,40.44,0,0,0,5.39,1c1.81.18,3.72.27,5.71.27A27.56,27.56,0,0,0,157.5,63a33.55,33.55,0,0,0,10-6.82A38.66,38.66,0,0,0,175,45.8a40,40,0,0,0,3.89-13.16,36.72,36.72,0,0,0-.61-13.7A23.47,23.47,0,0,0,172.85,8.77Z"/><polygon class="cls-1" points="331.42 1.24 323.69 64.39 330.46 64.39 338.19 1.24 331.42 1.24"/><path class="cls-1" d="M396.09,9.59a22.45,22.45,0,0,0-8.23-7A26.54,26.54,0,0,0,375.75,0,30.48,30.48,0,0,0,365.2,2,33.12,33.12,0,0,0,355,8.08a37.29,37.29,0,0,0-8.19,10.27,39.73,39.73,0,0,0-4.49,14.55,37.26,37.26,0,0,0,.6,13.84,26.55,26.55,0,0,0,5,10.24,22.65,22.65,0,0,0,8.45,6.41,27.17,27.17,0,0,0,11.12,2.24,30.1,30.1,0,0,0,11.5-2.3,32.57,32.57,0,0,0,10.13-6.59,38.26,38.26,0,0,0,7.62-10.37,41.07,41.07,0,0,0,4.06-13.64A41.32,41.32,0,0,0,400.41,20,26.84,26.84,0,0,0,396.09,9.59Zm-3,23.27a41.48,41.48,0,0,1-2.84,10.83,32.2,32.2,0,0,1-5.4,8.8,26,26,0,0,1-7.48,5.93,19.58,19.58,0,0,1-9.11,2.21,16.88,16.88,0,0,1-8.42-2.09,17.68,17.68,0,0,1-6.14-5.82,24.74,24.74,0,0,1-3.43-8.81A36.44,36.44,0,0,1,350,32.69h0a40.24,40.24,0,0,1,3.11-11.42,32.63,32.63,0,0,1,5.68-8.75,23.88,23.88,0,0,1,7.54-5.58A20.35,20.35,0,0,1,375,5,17.3,17.3,0,0,1,383.08,7a17,17,0,0,1,6.2,5.64,25,25,0,0,1,3.57,8.81A34.41,34.41,0,0,1,393.12,32.86Z"/><polygon class="cls-1" points="455.01 1.24 448.96 50.52 448.3 58.26 446.73 50.85 421.75 1.24 414.36 1.24 406.63 64.39 412.42 64.39 418.65 13.43 419.06 6.48 421.05 13.25 446.84 64.39 453.34 64.39 461.07 1.24 455.01 1.24"/><path class="cls-1" d="M495.25,35a39.62,39.62,0,0,0-6.54-4.5c-2.44-1.33-4.72-2.7-6.79-4.06a22.44,22.44,0,0,1-5.22-4.63A8.23,8.23,0,0,1,475,15.37a12.91,12.91,0,0,1,1.18-3.89,10.71,10.71,0,0,1,2.46-3.28A11.48,11.48,0,0,1,482.41,6a13.76,13.76,0,0,1,4.77-.8,47.12,47.12,0,0,1,5.77.41A40.7,40.7,0,0,1,499.45,7l2.43-4.48A58.23,58.23,0,0,0,494.57.78a47,47,0,0,0-7.48-.6,21.24,21.24,0,0,0-7.22,1.2,18.55,18.55,0,0,0-10,8.29,15,15,0,0,0-2,5.93,14.59,14.59,0,0,0,.45,6.27A14.14,14.14,0,0,0,471,26.6a21,21,0,0,0,4.17,3.69c1.63,1.1,3.33,2.15,5.06,3.11s3.47,2,5.11,2.94a28.62,28.62,0,0,1,4.5,3.22,12.79,12.79,0,0,1,3.1,4,9.57,9.57,0,0,1,.73,5.35A12.61,12.61,0,0,1,489,57.15c-2.66,2.19-6.21,3.3-10.56,3.3a36.84,36.84,0,0,1-7.19-.81A33.56,33.56,0,0,1,464,57.29l-2.39,4.55a34.89,34.89,0,0,0,3.77,1.52A34.13,34.13,0,0,0,470,64.58c1.54.29,3.07.51,4.55.66s2.86.22,4.06.22a27.11,27.11,0,0,0,8.92-1.39,23.27,23.27,0,0,0,6.89-3.7,17.88,17.88,0,0,0,4.58-5.3,17.4,17.4,0,0,0,2.09-6.15,13.69,13.69,0,0,0-1.12-8.1A19.64,19.64,0,0,0,495.25,35Z"/><polygon class="cls-1" points="282.15 1.24 281.53 6.25 300.34 6.25 293.24 64.39 300.37 64.39 307.47 6.25 326.38 6.25 327 1.24 282.15 1.24"/><path class="cls-1" d="M248,43.94h11.93A4.8,4.8,0,0,1,264,45.58,10.94,10.94,0,0,1,265.76,49h-21.9l-7.19,15.44h-6.88L260.27,1.24h7.28l15,63.15H275L263.36,13l-.56-5.44-2,5.26L247.43,41.22l-2.09,3.13Z"/><polygon class="cls-1" points="200.53 1.24 199.91 6.25 218.72 6.25 211.62 64.39 218.75 64.39 225.85 6.25 244.76 6.25 245.38 1.24 200.53 1.24"/><polygon class="cls-1" points="189.46 1.24 181.73 64.39 188.5 64.39 196.23 1.24 189.46 1.24"/><polygon class="cls-1" points="37.93 52.68 35.93 58.31 35.37 52.49 24.57 1.24 14.77 1.24 0 64.39 6.56 64.39 17.71 13.19 19.1 5.9 20.49 13.2 31.81 63.5 38.72 63.5 62.32 13.13 65.34 5.48 64.97 13.45 63.75 64.39 70.43 64.39 71.21 1.24 61.44 1.24 37.93 52.68"/><path class="cls-1" d="M264.1,79.41a34.41,34.41,0,0,0-12.74,2.39,35.08,35.08,0,0,0-10.84,6.74,36.79,36.79,0,0,0-7.93,10.39,38.62,38.62,0,0,0-4,13.38,34.09,34.09,0,0,0,.73,13.55A25.72,25.72,0,0,0,234.67,136a24.23,24.23,0,0,0,9.11,6.42,31.62,31.62,0,0,0,12.16,2.25,33.8,33.8,0,0,0,7.61-.91,37.57,37.57,0,0,0,7.81-2.84l-1.23-4.44a38.39,38.39,0,0,1-6.75,2.37c-5.73,1.36-11,1-15.51-1.16A19.09,19.09,0,0,1,241,132a24.53,24.53,0,0,1-4.11-8.72,30.33,30.33,0,0,1-.6-11.22,37.05,37.05,0,0,1,3.4-12.08,30.27,30.27,0,0,1,6.27-8.67,25.22,25.22,0,0,1,17.39-6.94,39.41,39.41,0,0,1,6.37.54,47.91,47.91,0,0,1,6.42,1.62l2.38-4.5a45.67,45.67,0,0,0-6.92-1.93A39.11,39.11,0,0,0,264.1,79.41Z"/><polygon class="cls-1" points="282.03 80.47 299.13 116.77 295.92 143.62 302.78 143.62 306.32 114.51 290.08 80.47 282.03 80.47"/><path class="cls-1" d="M323.82,80.47l-13.46,19.67a9.82,9.82,0,0,0-1.37,2.94,7.87,7.87,0,0,0-.25,2.73,8.48,8.48,0,0,0,.62,2.51c.2.48.42.94.65,1.37l21.4-29.22Z"/><polygon class="cls-1" points="337.73 138.61 344.92 80.47 337.8 80.47 330.07 143.62 364.09 143.62 364.71 138.61 337.73 138.61"/><path class="cls-1" d="M590.82,84.75a18.69,18.69,0,0,0-6.63-4,27.45,27.45,0,0,0-9.27-1.46,71.18,71.18,0,0,0-9,.53c-2.62.33-5.58.8-8.79,1.4l-7.65,62.37h7l7.09-58.41.51-.08c1.13-.18,2.13-.32,3-.44s1.7-.21,2.48-.28,1.56-.09,2.27-.09h2.31a15.7,15.7,0,0,1,5.76,1,13.73,13.73,0,0,1,4.48,2.8,11.05,11.05,0,0,1,2.79,4.21,10.83,10.83,0,0,1,.53,5.26A13.53,13.53,0,0,1,585.9,103a16.29,16.29,0,0,1-3.62,4.12,18.23,18.23,0,0,1-4.61,2.72,14.56,14.56,0,0,1-4.94,1.12,8.61,8.61,0,0,0-4.7,1.48,10.07,10.07,0,0,0-2.77,2.79,23.37,23.37,0,0,0,3.58.51,26.09,26.09,0,0,0,4.07,0,2.55,2.55,0,0,0,.64,0l.24-.09.24.1a9.72,9.72,0,0,1,5.2,4.77,28.16,28.16,0,0,1,2.37,7.28c.5,2.67.92,5.49,1.25,8.4a36.76,36.76,0,0,0,1.62,7.55h7.43a48.17,48.17,0,0,1-1.82-8c-.38-2.83-.83-5.56-1.32-8.11a36.14,36.14,0,0,0-2-6.91,12.1,12.1,0,0,0-4.05-5.07l-3.34-1.41,4-1.26a23.57,23.57,0,0,0,8.11-6.14,17.25,17.25,0,0,0,4-9v-.21a15,15,0,0,0-4.54-12.77Z"/><polygon class="cls-1" points="436.73 80.47 430.68 129.75 430.01 137.49 428.44 130.07 403.47 80.47 396.07 80.47 388.34 143.62 394.14 143.62 400.37 92.66 400.77 85.71 402.76 92.48 428.55 143.62 435.06 143.62 442.79 80.47 436.73 80.47"/><polygon class="cls-1" points="376.99 80.47 369.26 143.62 376.03 143.62 383.76 80.47 376.99 80.47"/><path class="cls-1" d="M497.67,88a24.68,24.68,0,0,0-10-6.37,43,43,0,0,0-14.5-2.22c-1.28,0-2.72,0-4.27.13s-3.14.22-4.75.4-3.27.39-4.9.66c-1.46.23-2.83.5-4.09.8l-7.57,62.22h7l7.18-58.51.53-.07c1.42-.18,3-.33,4.75-.45s3.51-.18,5.28-.18c8.94,0,15.45,2.43,19.36,7.23S497.06,103.26,496,112a39.48,39.48,0,0,1-2.89,10.71,33.86,33.86,0,0,1-5.44,8.79,26.35,26.35,0,0,1-7.34,6,17.94,17.94,0,0,1-8.54,2.21H470a19.48,19.48,0,0,1-2.26-.18,7,7,0,0,0-4.72,1.13,12.23,12.23,0,0,0-3,2.82,40.28,40.28,0,0,0,5.4,1c1.8.18,3.72.26,5.7.26a27.59,27.59,0,0,0,11.26-2.42,33.81,33.81,0,0,0,10-6.82,38.88,38.88,0,0,0,7.5-10.41,40.24,40.24,0,0,0,3.88-13.16,36.52,36.52,0,0,0-.61-13.7A23.56,23.56,0,0,0,497.67,88Z"/><polygon class="cls-1" points="514.33 80.47 506.6 143.62 543.28 143.62 543.84 138.61 514.18 138.61 520.74 85.48 549.06 85.48 549.68 80.47 514.33 80.47"/><path class="cls-1" d="M529.79,108.08a6.66,6.66,0,0,0-4.73,1.64,13.35,13.35,0,0,0-2.56,3.19h20.17l.62-4.83Z"/></g></g></svg>